<svg xmlns="http://www.w3.org/2000/svg" viewBox="0 0 1200 800" preserveAspectRatio="xMidYMid slice">
  <defs>
    <linearGradient id="g2" x1="0" y1="0" x2="0" y2="1">
      <stop offset="0" stop-color="#eaf4f1" />
      <stop offset="1" stop-color="#d8ece7" />
    </linearGradient>
  </defs>
  <rect width="1200" height="800" fill="url(#g2)" />
  <path d="M0 350 L220 310 L440 352 L660 308 L880 352 L1100 310 L1200 332 L1200 470 L0 470 Z" fill="#2f6552" opacity="0.45" />
  <rect y="620" width="1200" height="180" fill="#cfe2dc" />
  <!-- flat-roof modern house + garage -->
  <rect x="260" y="380" width="540" height="260" rx="8" fill="#f5f2eb" stroke="#d8cdbb" stroke-width="6" />
  <rect x="270" y="360" width="520" height="34" rx="6" fill="#235244" />
  <rect x="800" y="470" width="160" height="170" rx="8" fill="#e4ddcf" stroke="#d8cdbb" stroke-width="6" />
  <rect x="820" y="500" width="120" height="100" rx="6" fill="#235244" />
  <rect x="330" y="440" width="130" height="110" rx="6" fill="#cdeef0" stroke="#2ba6b8" stroke-width="5" />
  <rect x="510" y="440" width="130" height="110" rx="6" fill="#cdeef0" stroke="#2ba6b8" stroke-width="5" />
  <rect x="650" y="540" width="100" height="100" fill="#235244" />
</svg>
