<svg xmlns="http://www.w3.org/2000/svg" viewBox="0 0 1200 800" preserveAspectRatio="xMidYMid slice">
  <defs>
    <linearGradient id="g1" x1="0" y1="0" x2="0" y2="1">
      <stop offset="0" stop-color="#e9f3f1" />
      <stop offset="1" stop-color="#d6ebe6" />
    </linearGradient>
  </defs>
  <rect width="1200" height="800" fill="url(#g1)" />
  <path d="M0 340 L200 300 L400 342 L620 298 L840 342 L1060 300 L1200 330 L1200 460 L0 460 Z" fill="#2f6552" opacity="0.5" />
  <rect y="610" width="1200" height="190" fill="#cfe2dc" />
  <!-- large guest house, two storeys -->
  <rect x="300" y="330" width="600" height="310" rx="10" fill="#f5f2eb" stroke="#d8cdbb" stroke-width="6" />
  <polygon points="270,344 600,200 930,344" fill="#1f7a5a" />
  <rect x="540" y="500" width="120" height="140" fill="#235244" />
  <rect x="360" y="400" width="90" height="80" rx="6" fill="#cdeef0" stroke="#2ba6b8" stroke-width="5" />
  <rect x="480" y="400" width="90" height="80" rx="6" fill="#cdeef0" stroke="#2ba6b8" stroke-width="5" />
  <rect x="630" y="400" width="90" height="80" rx="6" fill="#cdeef0" stroke="#2ba6b8" stroke-width="5" />
  <rect x="750" y="400" width="90" height="80" rx="6" fill="#cdeef0" stroke="#2ba6b8" stroke-width="5" />
  <rect x="360" y="510" width="90" height="80" rx="6" fill="#cdeef0" stroke="#2ba6b8" stroke-width="5" />
  <rect x="750" y="510" width="90" height="80" rx="6" fill="#cdeef0" stroke="#2ba6b8" stroke-width="5" />
</svg>
