<svg xmlns="http://www.w3.org/2000/svg" viewBox="0 0 1200 800" preserveAspectRatio="xMidYMid slice">
  <defs>
    <linearGradient id="sky" x1="0" y1="0" x2="0" y2="1">
      <stop offset="0" stop-color="#e9f3f1" />
      <stop offset="1" stop-color="#d3e9e6" />
    </linearGradient>
    <linearGradient id="water" x1="0" y1="0" x2="0" y2="1">
      <stop offset="0" stop-color="#4fb8c1" />
      <stop offset="1" stop-color="#1d8497" />
    </linearGradient>
  </defs>
  <rect width="1200" height="800" fill="url(#sky)" />
  <circle cx="930" cy="170" r="80" fill="#f5ecd0" opacity="0.85" />
  <path d="M0 360 L120 320 L220 360 L340 310 L460 360 L600 305 L740 358 L880 312 L1020 360 L1140 318 L1200 350 L1200 470 L0 470 Z" fill="#3f7a64" opacity="0.85" />
  <path d="M0 430 L140 392 L260 432 L400 388 L540 436 L700 390 L860 436 L1020 392 L1160 436 L1200 410 L1200 540 L0 540 Z" fill="#235244" />
  <rect y="500" width="1200" height="300" fill="url(#water)" />
  <path d="M0 540 C260 516 460 556 760 524 C980 502 1100 540 1200 524 L1200 800 L0 800 Z" fill="#1d8497" opacity="0.5" />
  <path d="M120 600 q60 -12 120 0" stroke="#d6f3f4" stroke-width="4" fill="none" opacity="0.5" stroke-linecap="round" />
  <path d="M520 650 q70 -14 140 0" stroke="#d6f3f4" stroke-width="4" fill="none" opacity="0.45" stroke-linecap="round" />
  <path d="M900 620 q60 -12 120 0" stroke="#d6f3f4" stroke-width="4" fill="none" opacity="0.45" stroke-linecap="round" />
</svg>
