<svg xmlns="http://www.w3.org/2000/svg" viewBox="0 0 1200 800" preserveAspectRatio="xMidYMid slice">
  <defs>
    <linearGradient id="msky" x1="0" y1="0" x2="0" y2="1">
      <stop offset="0" stop-color="#eef5f4" />
      <stop offset="1" stop-color="#dde9e7" />
    </linearGradient>
  </defs>
  <rect width="1200" height="800" fill="url(#msky)" />
  <path d="M0 400 L180 360 L360 402 L540 358 L720 402 L900 360 L1080 402 L1200 372 L1200 500 L0 500 Z" fill="#cdded8" />
  <rect y="540" width="1200" height="260" fill="#e7eeec" />
  <!-- snowmobile -->
  <g transform="translate(440 520)">
    <path d="M-10 60 L300 60 L330 40 L260 40 L220 10 L60 10 L20 40 L-40 40 Z" fill="#1f7a5a" />
    <path d="M260 40 L360 36 L330 60 L300 60 Z" fill="#2ba6b8" />
    <rect x="40" y="-6" width="120" height="22" rx="10" fill="#14241d" />
    <line x1="-40" y1="78" x2="320" y2="78" stroke="#14241d" stroke-width="10" stroke-linecap="round" />
    <line x1="320" y1="36" x2="380" y2="20" stroke="#14241d" stroke-width="6" stroke-linecap="round" />
  </g>
  <ellipse cx="600" cy="700" rx="40" ry="12" fill="#9fc4c4" opacity="0.6" />
</svg>
