<svg xmlns="http://www.w3.org/2000/svg" viewBox="0 0 1200 800" preserveAspectRatio="xMidYMid slice">
  <defs>
    <linearGradient id="ssky" x1="0" y1="0" x2="0" y2="1">
      <stop offset="0" stop-color="#eef6f0" />
      <stop offset="1" stop-color="#dcefe9" />
    </linearGradient>
    <linearGradient id="swater" x1="0" y1="0" x2="0" y2="1">
      <stop offset="0" stop-color="#54bcc4" />
      <stop offset="1" stop-color="#1d8497" />
    </linearGradient>
  </defs>
  <rect width="1200" height="800" fill="url(#ssky)" />
  <circle cx="930" cy="160" r="86" fill="#f3e3bf" opacity="0.9" />
  <path d="M0 420 L160 380 L320 422 L500 376 L680 424 L860 378 L1040 424 L1200 388 L1200 520 L0 520 Z" fill="#2f6552" />
  <rect y="480" width="1200" height="320" fill="url(#swater)" />
  <g transform="translate(540 540)">
    <path d="M-90 26 C-58 64 58 64 90 26 L70 26 C50 46 -50 46 -70 26 Z" fill="#14241d" />
    <rect x="-4" y="-58" width="6" height="62" fill="#14241d" />
    <path d="M2 -56 L52 -8 L2 -8 Z" fill="#f4f9f7" />
    <circle cx="-28" cy="2" r="8" fill="#14241d" />
    <path d="M-24 12 L44 -34" stroke="#c7a24a" stroke-width="3" fill="none" stroke-linecap="round" />
  </g>
  <path d="M180 640 q60 -12 120 0" stroke="#d6f3f4" stroke-width="4" fill="none" opacity="0.5" stroke-linecap="round" />
  <path d="M820 670 q60 -12 120 0" stroke="#d6f3f4" stroke-width="4" fill="none" opacity="0.45" stroke-linecap="round" />
</svg>
