<svg xmlns="http://www.w3.org/2000/svg" viewBox="0 0 1200 800" preserveAspectRatio="xMidYMid slice">
  <defs>
    <linearGradient id="wsky" x1="0" y1="0" x2="0" y2="1">
      <stop offset="0" stop-color="#eef5f4" />
      <stop offset="1" stop-color="#dbe9e7" />
    </linearGradient>
  </defs>
  <rect width="1200" height="800" fill="url(#wsky)" />
  <circle cx="930" cy="160" r="74" fill="#eef2ee" />
  <path d="M0 410 L150 372 L300 414 L470 368 L640 416 L820 372 L1000 416 L1200 384 L1200 500 L0 500 Z" fill="#cdded8" />
  <rect y="470" width="1200" height="330" fill="#e7eeec" />
  <path d="M0 470 H1200 V520 H0 Z" fill="#d3e6e6" opacity="0.6" />
  <g transform="translate(560 540)">
    <circle cx="0" cy="0" r="9" fill="#14241d" />
    <rect x="-5" y="8" width="11" height="22" rx="5" fill="#1f7a5a" />
    <line x1="14" y1="-6" x2="40" y2="40" stroke="#14241d" stroke-width="3" stroke-linecap="round" />
    <circle cx="40" cy="46" r="6" fill="#2ba6b8" />
  </g>
  <ellipse cx="600" cy="600" rx="34" ry="12" fill="#9fc4c4" opacity="0.7" />
  <ellipse cx="380" cy="650" rx="26" ry="9" fill="#9fc4c4" opacity="0.6" />
</svg>
